<svg xmlns="http://www.w3.org/2000/svg"  viewBox="0 0 50 50" width="20px" height="20px"><path d="M 33 2 C 32.879672 2 32.762448 2.0099055 32.648438 2.0273438 C 32.647144 2.0274545 32.645824 2.0272318 32.644531 2.0273438 C 30.988293 2.1707901 29.643543 3.2792882 28.507812 4.6308594 C 27.290911 6.0790287 26.2251 7.8888069 25.169922 9.5917969 C 23.719915 11.931808 22.301058 14.061002 21.1875 14.785156 C 20.61244 15.159702 20.10072 15.444174 19.580078 15.732422 A 1.0001 1.0001 0 0 0 19.578125 15.734375 C 18.584554 16.287137 17.519278 16.881112 16.394531 18.005859 C 15.079565 19.320032 14.153275 20.585129 13.804688 21.083984 L 13.880859 20.978516 L 0.63867188 26.103516 A 1.0001 1.0001 0 0 0 0.43554688 27.861328 L 10.199219 34.554688 A 1.0001 1.0001 0 0 0 11.472656 34.435547 L 10.921875 34.986328 A 1.0001 1.0001 0 0 0 11.353516 35.015625 C 11.22025 35.035815 11.595685 34.984375 12.027344 34.984375 C 12.874557 34.984375 14.564467 35.136336 16.072266 36.041016 C 18.162116 37.294584 19.332868 39.829191 19.927734 42.150391 C 20.522601 44.47159 20.542394 46.449745 20.542969 46.517578 A 1.0001 1.0001 0 0 0 21.722656 47.492188 C 22.024214 47.436698 24.864277 46.848839 27.865234 43.880859 C 29.700208 42.06705 31.045217 39.974431 32.201172 38.1875 C 33.096177 36.803992 33.912865 35.554874 34.744141 34.658203 C 35.575416 33.761532 36.371125 33.234039 37.332031 33.082031 C 37.45133 33.063161 37.589191 33.052734 37.736328 33.052734 C 39.297655 33.052734 42.094576 34.512446 44.324219 36.080078 C 46.553861 37.64771 48.358937 39.287769 48.326172 39.257812 A 1.0001 1.0001 0 0 0 49.960938 38.246094 C 47.517201 29.695064 44.506048 20.78843 41.585938 13.976562 C 40.125881 10.57063 38.694305 7.6921901 37.332031 5.6074219 C 36.650895 4.5650378 35.989866 3.7198268 35.306641 3.0917969 C 34.623415 2.463767 33.884525 2 33 2 z M 33 4 C 33.110725 4 33.464327 4.1151432 33.953125 4.5644531 C 34.441923 5.0137631 35.033121 5.7445716 35.658203 6.7011719 C 36.908367 8.6143724 38.314352 11.421183 39.748047 14.765625 C 42.267419 20.642673 44.828341 28.212941 47.072266 35.714844 C 46.409766 35.182857 46.3675 35.073093 45.474609 34.445312 C 43.128002 32.795445 40.326001 31.052734 37.736328 31.052734 C 37.493465 31.052734 37.254232 31.070292 37.019531 31.107422 C 35.502437 31.347414 34.286068 32.210749 33.277344 33.298828 C 32.26862 34.386907 31.416479 35.718072 30.521484 37.101562 C 29.36544 38.888632 28.093964 40.842841 26.460938 42.457031 A 1.0001 1.0001 0 0 0 26.458984 42.457031 C 24.670836 44.22553 23.268896 44.850761 22.355469 45.169922 C 22.314749 44.368862 22.344709 43.525248 21.865234 41.654297 C 21.204351 39.075497 19.897759 36.004604 17.099609 34.326172 C 16.237846 33.809114 15.367981 33.494866 14.568359 33.296875 C 16.71532 31.957588 19.835089 29.662116 22.029297 26.283203 C 23.473039 24.061227 24.939594 20.391982 26.515625 16.503906 C 28.057532 12.701136 29.389399 9.42988 30.558594 7.171875 C 31.143144 6.0428255 31.69157 5.1685834 32.152344 4.6367188 C 32.613117 4.1048539 32.921623 4 33 4 z M 26.554688 11.150391 C 25.951681 12.584234 25.334905 14.094606 24.662109 15.753906 C 23.151734 19.480011 21.700356 22.991168 20.507812 24.931641 L 15.964844 21.613281 C 16.386531 21.044098 16.878654 20.34912 17.808594 19.419922 C 18.741403 18.487112 19.555043 18.0353 20.548828 17.482422 C 21.071748 17.192912 21.637066 16.87787 22.277344 16.460938 C 23.964627 15.363685 25.225084 13.307526 26.554688 11.150391 z M 14.376953 22.931641 L 19.347656 26.560547 C 17.161811 29.25957 14.288501 31.19384 12.638672 32.148438 C 12.199969 32.40205 11.758237 32.647623 11.316406 32.892578 A 1.0001 1.0001 0 0 0 10.060547 33.019531 L 10.644531 32.435547 L 3.1289062 27.285156 L 14.376953 22.931641 z"/></svg>